<?xml version="1.0" encoding="UTF-8" standalone="no"?>
<svg
   width="16"
   height="16"
   fill="yellow"
   class="bi bi-highlighter"
   viewBox="0 0 16 16"
   version="1.1"
   id="svg4"
   sodipodi:docname="highlighter-yellow-on-gray.svg"
   inkscape:version="1.2.2 (b0a8486541, 2022-12-01)"
   xmlns:inkscape="http://www.inkscape.org/namespaces/inkscape"
   xmlns:sodipodi="http://sodipodi.sourceforge.net/DTD/sodipodi-0.dtd"
   xmlns="http://www.w3.org/2000/svg"
   xmlns:svg="http://www.w3.org/2000/svg">
  <defs
     id="defs8" />
  <sodipodi:namedview
     id="namedview6"
     pagecolor="#ffffff"
     bordercolor="#000000"
     borderopacity="0.25"
     inkscape:showpageshadow="2"
     inkscape:pageopacity="0.0"
     inkscape:pagecheckerboard="0"
     inkscape:deskcolor="#d1d1d1"
     showgrid="false"
     inkscape:zoom="46.4375"
     inkscape:cx="5.8250336"
     inkscape:cy="7.9892328"
     inkscape:window-width="1920"
     inkscape:window-height="1023"
     inkscape:window-x="0"
     inkscape:window-y="0"
     inkscape:window-maximized="1"
     inkscape:current-layer="svg4" />
  <rect
     style="fill:#666666;stroke-width:1.00823"
     id="rect235"
     width="16.020193"
     height="16.121346"
     x="0.032454133"
     y="-0.0014865299" />
  <path
     fill-rule="evenodd"
     d="m 11.047445,1.2751782 a 1.8774124,1.9466181 0 0 1 2.619929,0.035039 l 1.345166,1.3947519 a 1.8774124,1.9466181 0 0 1 0.03285,2.7165055 L 14.657709,5.8448642 7.0823503,14.599779 a 0.46935309,0.48665452 0 0 1 -0.349199,0.161569 H 3.9170332 A 0.46935309,0.48665452 0 0 1 3.697376,14.704898 L 3.310629,15.105901 A 0.46935309,0.48665452 0 0 1 2.978327,15.248005 H 1.1009147 A 0.46935309,0.48665452 0 0 1 0.76861274,14.416797 L 2.0940658,13.042484 A 0.46935309,0.48665452 0 0 1 2.0396209,12.81473 V 9.8948033 A 0.46935309,0.48665452 0 0 1 2.1954461,9.5327323 L 10.639108,1.6781281 Z M 10.939494,2.7059425 3.1914133,9.9142693 6.7143773,13.567098 13.666435,5.5334053 Z m 3.365262,2.1120806 0.06008,-0.066185 A 0.93870618,0.97330904 0 0 0 14.348875,3.3930987 L 13.003709,1.9983468 a 0.93870618,0.97330904 0 0 0 -1.310434,-0.01752 l -0.06383,0.063265 z M 5.6001333,13.788039 2.978327,11.069587 v 1.543668 l 1.1330183,1.174784 z"
     id="path2"
     style="display:inline;stroke-width:0.955851" />
  <rect
     style="fill:#666666"
     id="rect237"
     width="0.11982934"
     height="0.044438194"
     x="0.021781417"
     y="16.078911" />
</svg>
